<mxfile host="app.diagrams.net" agent="Mozilla/5.0 (Windows NT 10.0; Win64; x64) AppleWebKit/537.36 (KHTML, like Gecko) Chrome/128.0.0.0 Safari/537.36" version="24.7.13">
  <diagram name="Page-1" id="iiia3BqDlDAQJF63lJh2">
    <mxGraphModel grid="1" page="1" gridSize="10" guides="1" tooltips="1" connect="1" arrows="1" fold="1" pageScale="1" pageWidth="850" pageHeight="1100" math="0" shadow="0">
      <root>
        <mxCell id="0" />
        <mxCell id="1" parent="0" />
        <mxCell id="NFtHdEqOim7bErwQlUJg-1" value="&lt;font style=&quot;font-size: 35px;&quot;&gt;+&lt;/font&gt;" style="whiteSpace=wrap;html=1;aspect=fixed;" vertex="1" parent="1">
          <mxGeometry x="380" y="230" width="80" height="80" as="geometry" />
        </mxCell>
        <mxCell id="NFtHdEqOim7bErwQlUJg-2" value="&lt;font style=&quot;font-size: 35px;&quot;&gt;-&lt;/font&gt;" style="whiteSpace=wrap;html=1;aspect=fixed;" vertex="1" parent="1">
          <mxGeometry x="380" y="350" width="80" height="80" as="geometry" />
        </mxCell>
        <mxCell id="NFtHdEqOim7bErwQlUJg-3" value="&lt;font style=&quot;font-size: 35px;&quot;&gt;&amp;amp;&lt;/font&gt;" style="whiteSpace=wrap;html=1;aspect=fixed;" vertex="1" parent="1">
          <mxGeometry x="380" y="470" width="80" height="80" as="geometry" />
        </mxCell>
        <mxCell id="NFtHdEqOim7bErwQlUJg-4" value="&lt;font style=&quot;font-size: 35px;&quot;&gt;|&lt;/font&gt;" style="whiteSpace=wrap;html=1;aspect=fixed;" vertex="1" parent="1">
          <mxGeometry x="380" y="590" width="80" height="80" as="geometry" />
        </mxCell>
        <mxCell id="NFtHdEqOim7bErwQlUJg-12" style="edgeStyle=orthogonalEdgeStyle;rounded=0;orthogonalLoop=1;jettySize=auto;html=1;entryX=0;entryY=0.25;entryDx=0;entryDy=0;endArrow=none;endFill=0;" edge="1" parent="1" source="NFtHdEqOim7bErwQlUJg-6" target="NFtHdEqOim7bErwQlUJg-1">
          <mxGeometry relative="1" as="geometry">
            <Array as="points">
              <mxPoint x="170" y="250" />
            </Array>
          </mxGeometry>
        </mxCell>
        <mxCell id="NFtHdEqOim7bErwQlUJg-13" style="edgeStyle=orthogonalEdgeStyle;rounded=0;orthogonalLoop=1;jettySize=auto;html=1;entryX=0;entryY=0.25;entryDx=0;entryDy=0;endArrow=none;endFill=0;" edge="1" parent="1" source="NFtHdEqOim7bErwQlUJg-6" target="NFtHdEqOim7bErwQlUJg-2">
          <mxGeometry relative="1" as="geometry">
            <Array as="points">
              <mxPoint x="170" y="370" />
            </Array>
          </mxGeometry>
        </mxCell>
        <mxCell id="NFtHdEqOim7bErwQlUJg-14" style="edgeStyle=orthogonalEdgeStyle;rounded=0;orthogonalLoop=1;jettySize=auto;html=1;entryX=0;entryY=0.25;entryDx=0;entryDy=0;endArrow=none;endFill=0;" edge="1" parent="1" source="NFtHdEqOim7bErwQlUJg-6" target="NFtHdEqOim7bErwQlUJg-3">
          <mxGeometry relative="1" as="geometry">
            <Array as="points">
              <mxPoint x="170" y="490" />
            </Array>
          </mxGeometry>
        </mxCell>
        <mxCell id="NFtHdEqOim7bErwQlUJg-15" style="edgeStyle=orthogonalEdgeStyle;rounded=0;orthogonalLoop=1;jettySize=auto;html=1;entryX=0;entryY=0.25;entryDx=0;entryDy=0;endArrow=none;endFill=0;" edge="1" parent="1" source="NFtHdEqOim7bErwQlUJg-6" target="NFtHdEqOim7bErwQlUJg-4">
          <mxGeometry relative="1" as="geometry">
            <Array as="points">
              <mxPoint x="170" y="610" />
            </Array>
          </mxGeometry>
        </mxCell>
        <mxCell id="NFtHdEqOim7bErwQlUJg-6" value="&lt;font style=&quot;font-size: 20px;&quot;&gt;i_dataA&lt;/font&gt;" style="text;html=1;align=center;verticalAlign=middle;resizable=0;points=[];autosize=1;strokeColor=none;fillColor=none;" vertex="1" parent="1">
          <mxGeometry x="130" y="180" width="90" height="40" as="geometry" />
        </mxCell>
        <mxCell id="NFtHdEqOim7bErwQlUJg-8" style="edgeStyle=orthogonalEdgeStyle;rounded=0;orthogonalLoop=1;jettySize=auto;html=1;entryX=0;entryY=0.75;entryDx=0;entryDy=0;endArrow=none;endFill=0;" edge="1" parent="1" source="NFtHdEqOim7bErwQlUJg-7" target="NFtHdEqOim7bErwQlUJg-1">
          <mxGeometry relative="1" as="geometry">
            <Array as="points">
              <mxPoint x="285" y="290" />
            </Array>
          </mxGeometry>
        </mxCell>
        <mxCell id="NFtHdEqOim7bErwQlUJg-9" style="edgeStyle=orthogonalEdgeStyle;rounded=0;orthogonalLoop=1;jettySize=auto;html=1;entryX=0;entryY=0.75;entryDx=0;entryDy=0;endArrow=none;endFill=0;" edge="1" parent="1" source="NFtHdEqOim7bErwQlUJg-7" target="NFtHdEqOim7bErwQlUJg-2">
          <mxGeometry relative="1" as="geometry">
            <Array as="points">
              <mxPoint x="285" y="410" />
            </Array>
          </mxGeometry>
        </mxCell>
        <mxCell id="NFtHdEqOim7bErwQlUJg-10" style="edgeStyle=orthogonalEdgeStyle;rounded=0;orthogonalLoop=1;jettySize=auto;html=1;entryX=0;entryY=0.75;entryDx=0;entryDy=0;endArrow=none;endFill=0;" edge="1" parent="1" source="NFtHdEqOim7bErwQlUJg-7" target="NFtHdEqOim7bErwQlUJg-3">
          <mxGeometry relative="1" as="geometry">
            <Array as="points">
              <mxPoint x="285" y="530" />
            </Array>
          </mxGeometry>
        </mxCell>
        <mxCell id="NFtHdEqOim7bErwQlUJg-11" style="edgeStyle=orthogonalEdgeStyle;rounded=0;orthogonalLoop=1;jettySize=auto;html=1;entryX=0;entryY=0.75;entryDx=0;entryDy=0;endArrow=none;endFill=0;" edge="1" parent="1" source="NFtHdEqOim7bErwQlUJg-7" target="NFtHdEqOim7bErwQlUJg-4">
          <mxGeometry relative="1" as="geometry">
            <Array as="points">
              <mxPoint x="285" y="650" />
            </Array>
          </mxGeometry>
        </mxCell>
        <mxCell id="NFtHdEqOim7bErwQlUJg-7" value="&lt;font style=&quot;font-size: 20px;&quot;&gt;i_dataB&lt;/font&gt;" style="text;html=1;align=center;verticalAlign=middle;resizable=0;points=[];autosize=1;strokeColor=none;fillColor=none;" vertex="1" parent="1">
          <mxGeometry x="240" y="180" width="90" height="40" as="geometry" />
        </mxCell>
        <mxCell id="NFtHdEqOim7bErwQlUJg-16" value="" style="ellipse;whiteSpace=wrap;html=1;aspect=fixed;fillColor=#000000;" vertex="1" parent="1">
          <mxGeometry x="275" y="280" width="20" height="20" as="geometry" />
        </mxCell>
        <mxCell id="NFtHdEqOim7bErwQlUJg-17" value="" style="ellipse;whiteSpace=wrap;html=1;aspect=fixed;fillColor=#000000;" vertex="1" parent="1">
          <mxGeometry x="275" y="400" width="20" height="20" as="geometry" />
        </mxCell>
        <mxCell id="NFtHdEqOim7bErwQlUJg-20" value="" style="ellipse;whiteSpace=wrap;html=1;aspect=fixed;fillColor=#000000;" vertex="1" parent="1">
          <mxGeometry x="275" y="520" width="20" height="20" as="geometry" />
        </mxCell>
        <mxCell id="NFtHdEqOim7bErwQlUJg-21" value="" style="ellipse;whiteSpace=wrap;html=1;aspect=fixed;fillColor=#000000;" vertex="1" parent="1">
          <mxGeometry x="160" y="240" width="20" height="20" as="geometry" />
        </mxCell>
        <mxCell id="NFtHdEqOim7bErwQlUJg-22" value="" style="ellipse;whiteSpace=wrap;html=1;aspect=fixed;fillColor=#000000;" vertex="1" parent="1">
          <mxGeometry x="160" y="360" width="20" height="20" as="geometry" />
        </mxCell>
        <mxCell id="NFtHdEqOim7bErwQlUJg-23" value="" style="ellipse;whiteSpace=wrap;html=1;aspect=fixed;fillColor=#000000;" vertex="1" parent="1">
          <mxGeometry x="160" y="480" width="20" height="20" as="geometry" />
        </mxCell>
        <mxCell id="NFtHdEqOim7bErwQlUJg-32" style="edgeStyle=orthogonalEdgeStyle;rounded=0;orthogonalLoop=1;jettySize=auto;html=1;exitX=0.5;exitY=0;exitDx=0;exitDy=0;endArrow=none;endFill=0;" edge="1" parent="1" source="NFtHdEqOim7bErwQlUJg-25" target="NFtHdEqOim7bErwQlUJg-31">
          <mxGeometry relative="1" as="geometry" />
        </mxCell>
        <mxCell id="NFtHdEqOim7bErwQlUJg-25" value="" style="shape=trapezoid;perimeter=trapezoidPerimeter;whiteSpace=wrap;html=1;fixedSize=1;rotation=90;" vertex="1" parent="1">
          <mxGeometry x="560" y="420" width="180" height="60" as="geometry" />
        </mxCell>
        <mxCell id="NFtHdEqOim7bErwQlUJg-27" style="edgeStyle=orthogonalEdgeStyle;rounded=0;orthogonalLoop=1;jettySize=auto;html=1;exitX=1;exitY=0.5;exitDx=0;exitDy=0;entryX=0.116;entryY=1.015;entryDx=0;entryDy=0;entryPerimeter=0;endArrow=none;endFill=0;" edge="1" parent="1" source="NFtHdEqOim7bErwQlUJg-1" target="NFtHdEqOim7bErwQlUJg-25">
          <mxGeometry relative="1" as="geometry" />
        </mxCell>
        <mxCell id="NFtHdEqOim7bErwQlUJg-35" value="0" style="edgeLabel;html=1;align=center;verticalAlign=middle;resizable=0;points=[];fontSize=20;" connectable="0" vertex="1" parent="NFtHdEqOim7bErwQlUJg-27">
          <mxGeometry x="0.1802" relative="1" as="geometry">
            <mxPoint x="90" y="31" as="offset" />
          </mxGeometry>
        </mxCell>
        <mxCell id="NFtHdEqOim7bErwQlUJg-28" style="edgeStyle=orthogonalEdgeStyle;rounded=0;orthogonalLoop=1;jettySize=auto;html=1;exitX=1;exitY=0.5;exitDx=0;exitDy=0;entryX=0.358;entryY=1.03;entryDx=0;entryDy=0;entryPerimeter=0;endArrow=none;endFill=0;" edge="1" parent="1" source="NFtHdEqOim7bErwQlUJg-2" target="NFtHdEqOim7bErwQlUJg-25">
          <mxGeometry relative="1" as="geometry">
            <Array as="points">
              <mxPoint x="520" y="390" />
              <mxPoint x="520" y="424" />
            </Array>
          </mxGeometry>
        </mxCell>
        <mxCell id="NFtHdEqOim7bErwQlUJg-36" value="1" style="edgeLabel;html=1;align=center;verticalAlign=middle;resizable=0;points=[];fontSize=20;" connectable="0" vertex="1" parent="NFtHdEqOim7bErwQlUJg-28">
          <mxGeometry x="0.5917" y="-4" relative="1" as="geometry">
            <mxPoint x="51" y="-8" as="offset" />
          </mxGeometry>
        </mxCell>
        <mxCell id="NFtHdEqOim7bErwQlUJg-29" style="edgeStyle=orthogonalEdgeStyle;rounded=0;orthogonalLoop=1;jettySize=auto;html=1;exitX=1;exitY=0.5;exitDx=0;exitDy=0;entryX=0.627;entryY=1.015;entryDx=0;entryDy=0;entryPerimeter=0;endArrow=none;endFill=0;" edge="1" parent="1" source="NFtHdEqOim7bErwQlUJg-3" target="NFtHdEqOim7bErwQlUJg-25">
          <mxGeometry relative="1" as="geometry">
            <Array as="points">
              <mxPoint x="520" y="510" />
              <mxPoint x="520" y="473" />
            </Array>
          </mxGeometry>
        </mxCell>
        <mxCell id="NFtHdEqOim7bErwQlUJg-37" value="&lt;font style=&quot;font-size: 20px;&quot;&gt;2&lt;/font&gt;" style="edgeLabel;html=1;align=center;verticalAlign=middle;resizable=0;points=[];" connectable="0" vertex="1" parent="NFtHdEqOim7bErwQlUJg-29">
          <mxGeometry x="0.2061" relative="1" as="geometry">
            <mxPoint x="88" y="-3" as="offset" />
          </mxGeometry>
        </mxCell>
        <mxCell id="NFtHdEqOim7bErwQlUJg-30" style="edgeStyle=orthogonalEdgeStyle;rounded=0;orthogonalLoop=1;jettySize=auto;html=1;exitX=1;exitY=0.5;exitDx=0;exitDy=0;entryX=0.876;entryY=0.999;entryDx=0;entryDy=0;entryPerimeter=0;endArrow=none;endFill=0;" edge="1" parent="1" source="NFtHdEqOim7bErwQlUJg-4" target="NFtHdEqOim7bErwQlUJg-25">
          <mxGeometry relative="1" as="geometry" />
        </mxCell>
        <mxCell id="NFtHdEqOim7bErwQlUJg-38" value="&lt;font style=&quot;font-size: 20px;&quot;&gt;3&lt;/font&gt;" style="edgeLabel;html=1;align=center;verticalAlign=middle;resizable=0;points=[];" connectable="0" vertex="1" parent="NFtHdEqOim7bErwQlUJg-30">
          <mxGeometry x="0.6459" y="-2" relative="1" as="geometry">
            <mxPoint x="58" as="offset" />
          </mxGeometry>
        </mxCell>
        <mxCell id="NFtHdEqOim7bErwQlUJg-31" value="&lt;font style=&quot;font-size: 20px;&quot;&gt;o_dataC&lt;/font&gt;" style="text;html=1;align=center;verticalAlign=middle;resizable=0;points=[];autosize=1;strokeColor=none;fillColor=none;" vertex="1" parent="1">
          <mxGeometry x="715" y="430" width="100" height="40" as="geometry" />
        </mxCell>
        <mxCell id="NFtHdEqOim7bErwQlUJg-34" style="edgeStyle=orthogonalEdgeStyle;rounded=0;orthogonalLoop=1;jettySize=auto;html=1;entryX=1;entryY=0.5;entryDx=0;entryDy=0;endArrow=none;endFill=0;" edge="1" parent="1" source="NFtHdEqOim7bErwQlUJg-33" target="NFtHdEqOim7bErwQlUJg-25">
          <mxGeometry relative="1" as="geometry" />
        </mxCell>
        <mxCell id="NFtHdEqOim7bErwQlUJg-33" value="&lt;font style=&quot;font-size: 20px;&quot;&gt;i_sel&lt;/font&gt;" style="text;html=1;align=center;verticalAlign=middle;resizable=0;points=[];autosize=1;strokeColor=none;fillColor=none;" vertex="1" parent="1">
          <mxGeometry x="620" y="560" width="60" height="40" as="geometry" />
        </mxCell>
      </root>
    </mxGraphModel>
  </diagram>
</mxfile>
